<svg xmlns="http://www.w3.org/2000/svg" viewBox="0 0 512 512" width="512" height="512">
  <defs>
    <linearGradient id="bg" x1="0" y1="0" x2="1" y2="1">
      <stop offset="0" stop-color="#0f172a"/>
      <stop offset="1" stop-color="#1e293b"/>
    </linearGradient>
    <linearGradient id="accent" x1="0" y1="0" x2="1" y2="1">
      <stop offset="0" stop-color="#22d3ee"/>
      <stop offset="1" stop-color="#a855f7"/>
    </linearGradient>
  </defs>
  <rect width="512" height="512" rx="112" fill="url(#bg)"/>
  <!-- Ticket body -->
  <g transform="translate(96 150)">
    <path fill="url(#accent)" d="M40 0h240a40 40 0 0 1 40 40v28a34 34 0 0 0 0 68v28a40 40 0 0 1-40 40H40a40 40 0 0 1-40-40v-28a34 34 0 0 0 0-68V40A40 40 0 0 1 40 0z"/>
    <line x1="188" y1="18" x2="188" y2="194" stroke="#0f172a" stroke-width="10" stroke-dasharray="14 14" stroke-linecap="round"/>
  </g>
  <!-- Pulse line -->
  <polyline points="150 300 195 300 220 250 255 355 285 300 360 300"
    fill="none" stroke="#0f172a" stroke-width="16" stroke-linecap="round" stroke-linejoin="round"/>
</svg>
